<svg width="512" height="512" xmlns="http://www.w3.org/2000/svg">

 <g>
  <title>background</title>
  <rect fill="none" id="canvas_background" height="402" width="582" y="-1" x="-1"/>
 </g>
 <g>
  <title>Layer 1</title>
  <path fill="#333333" id="svg_1" d="m256,48c-114.800003,0 -208,93.199997 -208,208s93.199997,208 208,208s208,-93.200012 208,-208s-93.200012,-208 -208,-208zm0,301.600006c-51.800003,0 -93.600006,-41.799988 -93.600006,-93.600006s41.800003,-93.599991 93.600006,-93.599991s93.600006,41.800003 93.600006,93.599991s-41.800018,93.600006 -93.600006,93.600006zm0,-114.400009c-11.399994,0 -20.800003,9.400009 -20.800003,20.800003s9.400009,20.799988 20.800003,20.799988s20.799988,-9.399994 20.799988,-20.799988s-9.399994,-20.800003 -20.799988,-20.800003z"/>
 </g>
</svg>