<svg width="512" height="512" xmlns="http://www.w3.org/2000/svg">

 <g>
  <title>background</title>
  <rect fill="none" id="canvas_background" height="402" width="582" y="-1" x="-1"/>
 </g>
 <g>
  <title>Layer 1</title>
  <path fill="#488aff" id="svg_1" d="m349.100006,334.700012c-11.199982,-4 -29.5,-4.200012 -37.600006,-7.299988c-5.599976,-2.200012 -14.5,-4.600006 -17.399994,-8.100006c-2.899994,-3.5 -2.899994,-28.5 -2.899994,-28.5s7,-6.600006 9.899994,-14c2.899994,-7.300018 4.800018,-27.500015 4.800018,-27.500015s6.599976,2.800003 9.199982,-10.399994c2.200012,-11.399994 6.399994,-17.399994 5.300018,-25.800003c-1.200012,-8.399994 -5.800018,-6.399994 -5.800018,-6.399994s5.800018,-8.5 5.800018,-37.400009c0,-29.799988 -22.5,-59.099991 -64.600021,-59.099991c-42,0 -64.699997,29.399994 -64.699997,59.099991c0,28.900009 5.699997,37.400009 5.699997,37.400009s-4.699997,-2 -5.799988,6.399994c-1.200012,8.400009 3,14.400009 5.299988,25.800003c2.600006,13.300003 9.200012,10.399994 9.200012,10.399994s1.899994,20.100021 4.799988,27.500015c2.900009,7.399994 9.900009,14 9.900009,14s0,25 -2.900009,28.5s-11.799988,5.899994 -17.399994,8c-8,3.100006 -26.300003,3.5 -37.600006,7.5c-11.199997,4 -45.799995,22.199982 -45.799995,67.199982l278.29998,0c0.100006,-45.099976 -34.5,-63.299988 -45.699982,-67.299988z"/>
  <path fill="#488aff" id="svg_2" d="m140,286s23.899994,-0.799988 33.399994,-9.299988c-15.5,-23.500015 -7.099991,-50.900009 -10.299988,-76.500015c-3.200012,-25.5 -17.700012,-40.800003 -46.700005,-40.800003l-0.400002,0c-28,0 -43.099998,15.200012 -46.300003,40.800003c-3.199997,25.5 5.700005,56.000015 -10.199997,76.500015c9.5,8.599976 33.5,8.299988 33.5,8.299988s1,14.399994 -1,16.799988c-2,2.400024 -7.900002,4.700012 -12,5.5c-8.800003,1.900024 -18.099998,4.5 -25.900002,7.200012c-7.799999,2.700012 -22.599998,17.200012 -22.599998,37.200012l80.300003,0c2.199997,-8 17.300003,-22.300018 32,-29.800018c9,-4.600006 17.899994,-4.299988 24.699997,-5.199982c0,0 3.800003,-6 -8.699997,-8.300018c0,0 -17.199997,-4.299988 -19.199997,-6.699982c-1.900009,-2.200012 -0.600006,-15.700012 -0.600006,-15.700012zm232,0s-23.899994,-0.799988 -33.399994,-9.299988c15.5,-23.500015 7.100006,-50.900009 10.299988,-76.500015c3.200012,-25.5 17.700012,-40.800003 46.700012,-40.800003l0.399994,0c28,0 43.100006,15.200012 46.299988,40.800003c3.200012,25.5 -5.699982,56.000015 10.200012,76.500015c-9.5,8.599976 -33.5,8.299988 -33.5,8.299988s-1,14.399994 1,16.799988c2,2.400024 7.899994,4.700012 12,5.5c8.799988,1.900024 18.100006,4.5 25.899994,7.200012c7.800018,2.700012 22.600006,17.200012 22.600006,37.200012l-80.299988,0c-2.200012,-8 -17.300018,-22.300018 -32,-29.800018c-9,-4.600006 -17.900024,-4.299988 -24.700012,-5.199982c0,0 -3.800018,-6 8.699982,-8.300018c0,0 17.200012,-4.299988 19.200012,-6.699982c1.899994,-2.200012 0.600006,-15.700012 0.600006,-15.700012z"/>
 </g>
</svg>