<svg width="512" height="512" xmlns="http://www.w3.org/2000/svg">

 <g>
  <title>background</title>
  <rect fill="none" id="canvas_background" height="402" width="582" y="-1" x="-1"/>
 </g>
 <g>
  <title>Layer 1</title>
  <path fill="#488aff" id="svg_1" d="m160,64l0,257.600006c-8.199997,-2.699982 -17.199997,-4.100006 -26.600006,-4.100006c-38.299995,0 -69.399994,27.100006 -69.399994,65.400024c0,38.299988 31.099998,65.099976 69.399994,65.099976c38.300003,0 69.600006,-28.199982 69.600006,-69.099976l0,-178.900024l202,0l0,121.600006c-8.200012,-2.700012 -17.200012,-4.100006 -26.600006,-4.100006c-38.299988,0 -69.399994,27.100006 -69.399994,65.399994c0,38.300018 31.100006,65.100006 69.399994,65.100006c38.300018,0 69.600006,-28.200012 69.600006,-69.100006l0,-314.899994l-288,0zm245,96l-202,0l0,-53l202,0l0,53z"/>
 </g>
</svg>